<svg width="207" height="48" viewBox="0 0 207 48" fill="none" xmlns="http://www.w3.org/2000/svg">
  <g fill="#ffffff">
    <path d="M0 31.2c0 4.8 3.6 8.4 9.6 8.4 5.4 0 9-3 9-7.2 0-3.6-2.4-5.7-6.6-6.6l-3.6-.9c-2.1-.45-3-1.2-3-2.4 0-1.5 1.35-2.55 3.6-2.55 2.4 0 3.9 1.2 4.05 3.15h4.8c-.15-4.35-3.45-7.35-8.85-7.35-5.1 0-8.4 2.85-8.4 6.9 0 3.45 2.25 5.55 6.3 6.45l3.6.9c2.25.45 3.3 1.35 3.3 2.7 0 1.65-1.5 2.7-4.05 2.7-2.7 0-4.35-1.35-4.5-3.6H0v.3z"/>
    <path d="M22 39h5.1V28.5l7.8 10.5h6.3l-9-11.7 8.4-10.8h-6l-7.5 9.9V8.4H22V39z"/>
    <path d="M44 39h5.1V16.5H44V39zm2.55-26.1c1.8 0 3-1.2 3-2.85 0-1.65-1.2-2.85-3-2.85s-3 1.2-3 2.85c0 1.65 1.2 2.85 3 2.85z"/>
    <path d="M53 39h5.1V8.4H53V39z"/>
    <path d="M62 39h5.1V8.4H62V39z"/>
    <path d="M70 31.5c0 5.1 3.3 8.1 8.1 8.1 3.3 0 5.7-1.5 6.9-3.9v3.3h4.8V24.6c0-5.4-3.3-8.85-9.3-8.85-5.55 0-9 3-9.45 7.35h4.95c.3-2.1 1.8-3.3 4.35-3.3 2.7 0 4.35 1.5 4.35 4.05v1.35l-5.7.6c-5.55.6-8.95 2.85-8.95 7.05v.3h-.05.05zm4.95-.6c0-2.1 1.65-3.15 4.65-3.45l4.35-.45v1.5c0 3-2.25 5.1-5.4 5.1-2.4 0-3.6-1.05-3.6-2.7z"/>
    <path d="M94 39h5.1V26.7c0-3.6 2.1-5.85 5.25-5.85 3 0 4.65 1.95 4.65 5.25V39h5.1V25.2c0-5.7-3.15-9.45-8.55-9.45-3.45 0-5.7 1.5-6.9 3.9v-3.15H94V39z"/>
    <path d="M118 27.75c0 7.05 4.35 11.85 10.95 11.85 5.4 0 9.15-3.15 10.05-7.8h-5.1c-.6 2.25-2.4 3.6-4.95 3.6-3.45 0-5.7-2.7-5.7-7.05v-.6c0-4.35 2.25-7.05 5.7-7.05 2.55 0 4.35 1.35 4.95 3.6h5.1c-.9-4.65-4.65-7.8-10.05-7.8-6.6 0-10.95 4.8-10.95 11.85v.4z"/>
    <path d="M142 27.75c0 7.05 4.5 11.85 11.25 11.85 5.7 0 9.75-3.45 10.5-8.4h-5.1c-.6 2.55-2.55 4.2-5.4 4.2-3.45 0-5.85-2.4-6-6.3h16.65v-1.95c0-6.75-4.35-11.4-10.8-11.4-6.6 0-11.1 4.8-11.1 11.85v.15zm5.25-2.1c.3-3.45 2.55-5.7 5.85-5.7 3.15 0 5.4 2.25 5.55 5.7h-11.4z"/>
    <path d="M167 39h5.1V27.15c0-4.05 2.1-6.15 5.55-6.15.9 0 1.65.15 2.4.3v-5.1c-.6-.15-1.2-.15-1.8-.15-3 0-5.1 1.65-6.15 4.2v-3.75H167V39z"/>
  </g>
  <circle cx="195" cy="24" r="11" fill="#10b981"/>
  <path d="M190 24L193.5 27.5L200 21" stroke="white" stroke-width="2.5" stroke-linecap="round" stroke-linejoin="round"/>
</svg>
